<?xml version="1.0" encoding="UTF-8"?> <svg xmlns="http://www.w3.org/2000/svg" width="159" height="18" viewBox="0 0 159 18" fill="none"><path d="M1.25107 8.59792H10.9407V9.75664H1.25107V16.2807H11.6963V17.5066H0V0.965485H11.4109V2.19977H1.25107V8.59792Z" fill="#1A1A1A"></path><path d="M20.1768 2.1242H14.2068V0.990662H27.4313V2.1242H21.453V17.5066H20.1768V2.1242Z" fill="#1A1A1A"></path><path d="M43.0068 17.5066L41.1848 13.4427H31.3105L29.5137 17.5066H28.145L35.5591 0.965485H36.953L44.3755 17.5066H43.0068ZM40.6894 12.2756L36.2476 2.19977L31.8059 12.2756H40.6894Z" fill="#1A1A1A"></path><path d="M47.5243 11.7886V17.5066H46.248V0.965485H53.5278C60.7152 0.965485 60.7152 11.7886 53.5278 11.7886H47.5243ZM47.5243 2.1494V10.5963H53.5278C59.0359 10.5963 59.0359 2.1158 53.5278 2.1158L47.5243 2.1494Z" fill="#1A1A1A"></path><path d="M62.9486 8.59792H72.6382V9.75664H62.9486V16.2807H73.3939V17.5066H61.6975V0.965485H73.1084V2.19977H62.9486V8.59792Z" fill="#1A1A1A"></path><path d="M87.4329 4.15613C86.2238 2.21654 84.2842 1.93947 82.395 1.91428C80.5058 1.88909 77.3571 2.61959 77.3571 5.27289C77.3571 7.38041 79.6241 7.87581 82.395 8.39639C85.5857 9.00934 88.8855 9.5719 88.8855 13.1404C88.8855 16.8769 85.1071 17.7753 82.3446 17.7753C79.7669 17.7753 76.8449 16.7089 75.5686 14.1816L76.7021 13.619C77.7181 15.6258 80.3126 16.6166 82.3446 16.6166C84.3766 16.6166 87.6176 16.0456 87.6176 13.1152C87.6176 10.6383 84.8971 10.0925 82.1767 9.5719C79.1539 8.98415 76.064 8.3712 76.064 5.32326C75.9885 1.83031 79.6241 0.73877 82.3446 0.73877C84.704 0.73877 86.7612 1.11659 88.3901 3.55158L87.4329 4.15613Z" fill="#1A1A1A"></path><path d="M99.1124 12.6366H94.4355V17.5066H91.312V0.965464C93.9149 0.965464 96.5094 0.965464 99.1124 0.965464C107.19 0.940275 107.215 12.6366 99.1124 12.6366ZM94.4355 9.78181H99.1124C103.101 9.78181 103.084 3.90425 99.1124 3.90425H94.4355V9.78181Z" fill="#1A1A1A"></path><path d="M121.959 17.5066H118.248L113.429 11.9733H110.431V17.5066H107.316V0.940277H115.175C119.079 0.940277 121.137 3.55999 121.137 6.4232C121.221 7.65932 120.836 8.88179 120.057 9.84564C119.279 10.8095 118.165 11.4435 116.938 11.6207L121.976 17.2631L121.959 17.5066ZM110.431 3.87906V9.17726H115.175C115.535 9.19756 115.896 9.14409 116.235 9.02014C116.574 8.89618 116.885 8.70434 117.147 8.45635C117.409 8.20837 117.618 7.90945 117.761 7.57791C117.904 7.24636 117.978 6.88916 117.978 6.52816C117.978 6.16716 117.904 5.80996 117.761 5.47842C117.618 5.14687 117.409 4.84796 117.147 4.59997C116.885 4.35198 116.574 4.16014 116.235 4.03619C115.896 3.91223 115.535 3.85876 115.175 3.87906H110.431Z" fill="#1A1A1A"></path><path d="M123.261 17.5066V0.965485H126.359V17.5066H123.261Z" fill="#1A1A1A"></path><path d="M140.155 0.940277H143.278V17.5066H141.339L132.64 6.39802V17.5486H129.525V1.00744H132.044L140.146 11.2596L140.155 0.940277Z" fill="#1A1A1A"></path><path d="M150.415 3.80351H145.167V0.965485H158.778V3.80351H153.53V17.5066H150.415V3.80351Z" fill="#1A1A1A"></path></svg> 