<svg xmlns="http://www.w3.org/2000/svg" width="257" height="110" viewBox="0 0 257 110" fill="none"><path d="M81.8761 22.8332V39.1056C81.8761 39.2559 81.8009 39.3965 81.6753 39.4795L60.6009 53.4549C60.3569 53.6172 60.331 53.9659 60.5486 54.1618L81.7276 73.2344C81.822 73.3191 81.8761 73.4406 81.8761 73.5674V89.7827C81.8761 89.9402 81.7937 90.0863 81.6585 90.1674L48.7746 109.935C48.4759 110.115 48.0947 109.899 48.0947 109.55V96.6279C48.0947 96.4698 48.1783 96.3231 48.3141 96.2426L72.408 81.9197C72.6713 81.7634 72.7038 81.3943 72.4718 81.1941L48.2504 60.3218C48.1518 60.2364 48.0947 60.1126 48.0947 59.9821V44.6259C48.0947 44.4756 48.1699 44.3349 48.2955 44.252L81.1793 22.4593C81.4775 22.2615 81.8755 22.4755 81.8755 22.8332H81.8761Z" fill="#006FB7"></path><path d="M0.256689 21.2011L32.4468 0.183893C32.8237 -0.0619755 33.3227 0.207939 33.3227 0.658196V49.6599C33.3227 49.9725 33.5763 50.2262 33.8889 50.2262H42.1463C42.4589 50.2262 42.7125 50.4799 42.7125 50.7925V70.73C42.7125 71.0426 42.4589 71.2963 42.1463 71.2963H34.0038C33.6912 71.2963 33.4375 71.55 33.4375 71.8626V109.336C33.4375 109.778 32.9536 110.05 32.576 109.82L0.271717 90.1272C0.102796 90.0244 0 89.841 0 89.6433V21.6754C0 21.4843 0.0967843 21.3057 0.256689 21.2011Z" fill="white"></path><path d="M48.0947 0.452854V43.5435C48.0947 43.9036 48.4957 44.1194 48.7963 43.9204L81.3074 22.3748C81.5773 22.1963 81.5773 21.8001 81.3074 21.6216L48.7963 0.0759358C48.4957 -0.123043 48.0947 0.0921667 48.0947 0.452854Z" fill="white"></path><path d="M60.4753 53.5393L81.3597 39.6895C81.5803 39.5434 81.8755 39.7015 81.8755 39.9661V72.6232C81.8755 72.9106 81.5347 73.0627 81.3212 72.8697L60.4369 54.0623C60.2758 53.9168 60.295 53.6589 60.4753 53.5387V53.5393Z" fill="white"></path><path d="M48.0947 60.9038V95.7894C48.0947 96.0467 48.3749 96.2066 48.5967 96.075L72.806 81.683C73.002 81.5663 73.0248 81.2916 72.8511 81.1443L48.6418 60.6501C48.426 60.4674 48.0953 60.6207 48.0953 60.9038H48.0947Z" fill="white"></path><path d="M101.897 70.7002V50.7458H97.7243V70.7002H92.8027V26.6724H97.7243V45.8242H101.897V26.6724H106.818V70.6996H101.897V70.7002Z" fill="white"></path><path d="M111.847 33.6806C111.847 28.7055 114.201 26.1909 118.855 26.1909C123.509 26.1909 125.916 28.7055 125.916 33.6806V63.6921C125.916 68.6672 123.562 71.1818 118.855 71.1818C114.147 71.1818 111.847 68.6672 111.847 63.6921V33.6806ZM120.994 33.6806C120.994 32.022 120.299 31.166 118.854 31.166C117.41 31.166 116.768 32.022 116.768 33.6806V63.6921C116.768 65.4042 117.463 66.2602 118.854 66.2602C120.245 66.2602 120.994 65.4042 120.994 63.6921V33.6806Z" fill="white"></path><path d="M146.994 70.7002V57.861C146.994 52.0834 147.047 46.4128 147.208 40.6352C146.191 47.8573 145.228 55.133 143.249 70.7002H138.97L135.118 40.6352C135.279 46.4128 135.332 52.0834 135.332 57.861V70.7002H130.785V26.6724H137.365C139.505 46.5733 140.361 52.9394 141.056 59.1979C141.752 53.0458 142.661 46.4657 144.801 26.6724H151.541V70.6996H146.994L146.994 70.7002Z" fill="white"></path><path d="M156.783 70.7002V26.6724H168.659V31.6474H161.705V45.7707H166.359V50.7458H161.705V65.778H168.927V70.6996H156.783V70.7002Z" fill="white"></path><path d="M181.819 57.647C181.819 55.6675 181.498 54.7585 180.267 53.207C178.822 51.3344 175.399 47.5899 174.115 45.6103C173.098 44.0587 172.777 42.6148 172.777 40.0467V33.4666C172.777 28.545 175.131 26.1909 179.893 26.1909C184.654 26.1909 186.58 28.5985 186.58 33.4666V41.4913H181.979V33.5201C181.979 32.0755 181.391 31.166 179.893 31.166C178.501 31.166 177.806 31.915 177.806 33.4666V39.9932C177.806 41.2237 177.966 42.0798 178.662 42.9887C179.732 44.4868 183.209 48.1778 184.868 50.5854C186.259 52.6184 186.74 54.1694 186.74 57.5935V63.9061C186.74 68.6137 184.707 71.1818 179.785 71.1818C174.864 71.1818 172.777 68.6137 172.777 63.9061V54.5445H177.538V63.9061C177.538 65.3507 178.18 66.2602 179.678 66.2602C181.07 66.2602 181.819 65.4577 181.819 63.9061V57.647Z" fill="white"></path><path d="M194.123 70.7001V31.6479H189.522V26.6729H203.646V31.6479H199.045V70.7001H194.124H194.123Z" fill="white"></path><path d="M206.427 33.6806C206.427 28.7055 208.781 26.1909 213.435 26.1909C218.089 26.1909 220.497 28.7055 220.497 33.6806V63.6921C220.497 68.6672 218.142 71.1818 213.435 71.1818C208.727 71.1818 206.427 68.6672 206.427 63.6921V33.6806ZM215.574 33.6806C215.574 32.022 214.879 31.166 213.434 31.166C211.99 31.166 211.348 32.022 211.348 33.6806V63.6921C211.348 65.4042 212.043 66.2602 213.434 66.2602C214.825 66.2602 215.574 65.4042 215.574 63.6921V33.6806Z" fill="white"></path><path d="M235.047 70.7002C234.244 64.0131 233.549 57.5935 232.479 50.9063H230.446V70.7002H225.471V26.6724H232.318C237.454 26.6724 240.076 28.8124 240.076 34.59V43.5237C240.076 46.9472 239.166 48.7662 237.186 49.8898C238.47 56.9514 239.433 63.7991 240.45 70.6996H235.047V70.7002ZM235.047 35.6066C235.047 32.878 234.672 31.648 232.318 31.648H230.446V46.4134H232.372C234.137 46.4134 235.047 45.4503 235.047 43.5778V35.6066Z" fill="white"></path><path d="M244.837 70.7002V26.6724H256.713V31.6474H249.758V45.7707H254.413V50.7458H249.758V65.778H256.981V70.6996H244.837V70.7002Z" fill="white"></path><path d="M98.7021 76.0722C98.8807 76.1437 99.0688 76.273 99.2672 76.4599C99.465 76.6577 99.6051 76.8489 99.688 77.0328C99.7704 77.2168 99.7788 77.3532 99.7127 77.441C99.251 77.9742 98.707 78.7605 98.08 79.7993C97.4536 80.8381 96.8332 81.9761 96.2206 83.2132C95.6074 84.4504 95.0923 85.6292 94.6745 86.7503C94.6576 86.7942 94.6414 86.8381 94.6252 86.882C94.6089 86.9259 94.5951 86.9674 94.5837 87.0058C94.8807 86.4834 95.2089 85.9448 95.569 85.39C95.9291 84.8345 96.3096 84.3013 96.7111 83.7903C97.1235 83.2625 97.5401 82.8038 97.9603 82.4131C98.3805 82.0229 98.7917 81.7398 99.1933 81.5637C99.5173 81.4374 99.8046 81.3972 100.055 81.444C100.305 81.4909 100.519 81.6033 100.698 81.7819C100.876 81.9604 101.021 82.1774 101.131 82.4335C101.241 82.689 101.32 82.9625 101.37 83.2541C101.419 83.5565 101.424 83.8877 101.383 84.2478C101.341 84.6079 101.265 84.986 101.156 85.3815C100.931 86.1624 100.607 86.9343 100.183 87.6983C99.8473 88.2977 99.4752 88.8405 99.0652 89.3268C98.6558 89.8132 98.2284 90.1997 97.783 90.4853C97.3375 90.7708 96.8951 90.9061 96.4557 90.8892C96.1641 90.867 95.8798 90.793 95.602 90.6668C95.3243 90.54 95.0562 90.3728 94.7983 90.1636C94.5452 89.9659 94.3228 89.7513 94.1304 89.5204C94.1028 89.592 94.0902 89.6785 94.0932 89.7801C94.0956 89.8817 94.1058 89.9875 94.122 90.0975C94.1388 90.2406 94.1425 90.3584 94.1346 90.4522C94.1262 90.5454 94.0757 90.5784 93.9819 90.5514C93.7619 90.469 93.5479 90.3314 93.3387 90.139H93.3219C92.9648 89.8474 92.7244 89.5108 92.6005 89.1291C92.4767 88.7474 92.4593 88.3277 92.547 87.8715C92.6456 87.2066 92.8716 86.4149 93.2233 85.497C93.6465 84.3644 94.1677 83.1729 94.7857 81.9226C95.4043 80.6722 96.0307 79.5204 96.6655 78.4678C97.3003 77.4152 97.8515 76.6168 98.3186 76.0722C98.3956 76.0007 98.523 76.0007 98.7021 76.0722ZM98.4136 83.0521C98.0258 83.423 97.6429 83.8504 97.2636 84.3343C96.7027 85.0599 96.1833 85.8144 95.7054 86.5977C95.2269 87.3809 94.8314 88.0777 94.5182 88.6878C94.5729 88.7648 94.6282 88.8393 94.6829 88.9103C94.7821 89.0696 94.8752 89.188 94.963 89.2649C95.0508 89.3419 95.2047 89.3888 95.4247 89.405C95.7932 89.4158 96.1737 89.2872 96.5669 89.0173C96.96 88.748 97.3436 88.3837 97.7169 87.925C98.0908 87.4663 98.434 86.9535 98.7478 86.3873C99.1656 85.6454 99.4818 84.9006 99.6958 84.1528C99.795 83.8011 99.8617 83.4699 99.8978 83.1591C99.9333 82.8483 99.9297 82.5694 99.8852 82.3223C99.8575 82.1576 99.7421 82.1245 99.5389 82.2231C99.1758 82.4047 98.8007 82.6806 98.4136 83.0521Z" fill="#ABA9A9"></path><path d="M109.763 81.0072C109.933 81.0595 110.12 81.1791 110.324 81.3661C110.527 81.553 110.68 81.7412 110.781 81.9311C110.883 82.1205 110.91 82.2678 110.86 82.3724C110.48 83.1142 110.085 83.9281 109.672 84.813C109.255 85.7033 108.859 86.5888 108.485 87.4683C108.452 87.556 108.411 87.6552 108.361 87.7652C108.257 88.0237 108.136 88.3069 107.998 88.6147C107.69 89.3625 107.373 90.1115 107.046 90.8617C106.719 91.612 106.378 92.3388 106.023 93.0427C105.669 93.746 105.298 94.3989 104.91 95.0012C104.522 95.603 104.114 96.1254 103.686 96.5678C103.257 97.0103 102.803 97.3499 102.325 97.5861C101.83 97.8224 101.308 97.8801 100.759 97.7593C100.412 97.6715 100.062 97.5116 99.7072 97.2808C99.3525 97.0499 98.9912 96.7367 98.6227 96.3406C98.4358 96.1374 98.3137 95.9486 98.256 95.7755C98.1983 95.6024 98.2133 95.4827 98.3011 95.4166C98.4003 95.3613 98.5446 95.3824 98.7339 95.4785C98.9239 95.5747 99.112 95.722 99.299 95.9198C99.4968 96.1284 99.7006 96.2552 99.9092 96.2991C100.272 96.3869 100.646 96.3346 101.03 96.1422C101.487 95.9168 101.922 95.5885 102.337 95.1569C102.752 94.7253 103.148 94.2155 103.524 93.6276C103.901 93.0391 104.263 92.3989 104.609 91.7063C104.955 91.0138 105.289 90.2979 105.611 89.5585C105.933 88.8191 106.245 88.0838 106.547 87.3529L106.572 87.2789C106.792 86.6742 107.088 85.9101 107.462 84.9867C107.341 85.1352 107.186 85.348 106.996 85.6258C106.807 85.9035 106.596 86.2185 106.365 86.5702C106.03 87.0763 105.68 87.5939 105.314 88.1247C104.949 88.6555 104.595 89.128 104.254 89.5428C103.913 89.9576 103.616 90.242 103.364 90.3965C103.237 90.468 103.122 90.5011 103.018 90.4956C102.677 90.4518 102.38 90.2979 102.127 90.034C101.853 89.7755 101.671 89.4815 101.583 89.1515C101.496 88.8215 101.496 88.4037 101.583 87.8981C101.644 87.5627 101.733 87.1948 101.851 86.7932C101.97 86.3922 102.108 85.9714 102.268 85.5314C102.609 84.608 102.982 83.7328 103.386 82.905C103.79 82.0778 104.148 81.458 104.462 81.0456C104.533 80.9687 104.656 80.9633 104.833 81.0294C105.009 81.0955 105.198 81.2248 105.401 81.4172C105.599 81.6095 105.74 81.7995 105.826 81.9858C105.911 82.1728 105.923 82.3105 105.863 82.3982C105.566 82.7998 105.22 83.4039 104.824 84.2125C104.429 85.021 104.062 85.8807 103.728 86.7932C103.491 87.4196 103.307 88.0027 103.175 88.5413C103.301 88.5305 103.538 88.3447 103.885 87.9847C104.231 87.6246 104.64 87.1617 105.113 86.5954C105.586 86.0291 106.074 85.4262 106.577 84.7854C107.08 84.1451 107.55 83.5392 107.987 82.9669C108.424 82.3952 108.783 81.9281 109.063 81.565C109.223 81.345 109.344 81.1857 109.426 81.0865V81.0781C109.481 80.9789 109.594 80.9561 109.764 81.0078L109.763 81.0072Z" fill="#ABA9A9"></path><path d="M123.682 85.5222C123.753 85.5498 123.83 85.6021 123.913 85.6791C123.99 85.7615 124.045 85.8396 124.077 85.9141C124.11 85.9887 124.113 86.0422 124.086 86.0752C123.904 86.3668 123.67 86.7335 123.385 87.1759C123.099 87.6184 122.799 88.0723 122.486 88.5363C122.173 89.001 121.886 89.405 121.625 89.7482C121.363 90.0915 121.164 90.3073 121.027 90.3957C120.9 90.4726 120.782 90.5057 120.672 90.4949C120.336 90.451 120.042 90.2971 119.789 90.0332C119.515 89.7747 119.333 89.4807 119.245 89.1507C119.158 88.8207 119.158 88.4029 119.245 87.8973C119.377 87.2102 119.605 86.4215 119.929 85.5306C120.039 85.2228 120.157 84.915 120.284 84.6073C120.157 84.7666 119.99 85.0028 119.781 85.3166C119.572 85.6298 119.336 85.9899 119.072 86.3969C118.731 86.9301 118.372 87.4771 117.996 88.038C117.619 88.5989 117.26 89.0936 116.92 89.5222C116.579 89.9508 116.285 90.2424 116.037 90.3963C115.91 90.4678 115.792 90.5009 115.682 90.4955C115.347 90.4516 115.053 90.2977 114.8 90.0338C114.52 89.7753 114.335 89.4813 114.247 89.1513C114.16 88.8213 114.16 88.4035 114.247 87.8979C114.308 87.5625 114.397 87.1946 114.516 86.793C114.634 86.3921 114.772 85.9713 114.932 85.5312C115.278 84.6079 115.654 83.7326 116.058 82.9048C116.461 82.0776 116.817 81.4579 117.125 81.0455C117.197 80.9685 117.322 80.9631 117.5 81.0292C117.679 81.0954 117.868 81.2246 118.065 81.417C118.263 81.6093 118.406 81.7993 118.494 81.9857C118.582 82.1726 118.593 82.3103 118.527 82.398C118.225 82.7996 117.877 83.4038 117.484 84.2123C117.091 85.0202 116.724 85.8805 116.383 86.793C116.158 87.4194 115.976 88.0025 115.839 88.5411C115.966 88.5303 116.196 88.3518 116.532 88.0049C116.867 87.6587 117.264 87.2108 117.723 86.6608C118.182 86.1113 118.657 85.5228 119.15 84.8964C119.642 84.27 120.106 83.6719 120.543 83.1032C120.98 82.5345 121.347 82.0572 121.644 81.6725C121.875 81.3701 122.032 81.1615 122.114 81.0455C122.186 80.9685 122.311 80.9631 122.489 81.0292C122.668 81.0954 122.859 81.2246 123.062 81.417C123.26 81.6093 123.401 81.7993 123.486 81.9857C123.572 82.1726 123.584 82.3103 123.524 82.398C123.221 82.7996 122.872 83.4038 122.477 84.2123C122.081 85.0208 121.718 85.8805 121.388 86.793C121.146 87.4362 120.956 88.0356 120.819 88.5904C121.232 88.2442 121.664 87.8029 122.118 87.2673C122.571 86.7311 123.042 86.1528 123.532 85.5318C123.56 85.4988 123.609 85.4963 123.681 85.5234L123.682 85.5222Z" fill="#ABA9A9"></path><path d="M125.859 81.0286C126.035 81.0948 126.222 81.224 126.42 81.4164C126.618 81.6087 126.761 81.7987 126.848 81.9851C126.936 82.172 126.947 82.3097 126.881 82.3974C126.59 82.793 126.248 83.3923 125.855 84.1949C125.462 84.9974 125.118 85.8083 124.824 86.6271C124.53 87.4465 124.342 88.0236 124.259 88.3584C124.567 87.7536 124.964 87.0599 125.451 86.2766C125.937 85.4933 126.469 84.7335 127.046 83.9965C127.48 83.4356 127.92 82.9439 128.366 82.5207C128.811 82.0975 129.242 81.7897 129.66 81.5973C129.786 81.5372 129.93 81.4873 130.093 81.4488C130.255 81.4104 130.419 81.3995 130.583 81.4158C130.748 81.432 130.898 81.4939 131.032 81.6015C131.167 81.7091 131.273 81.8775 131.35 82.1089C131.41 82.2959 131.413 82.5267 131.358 82.8014C131.303 83.0761 131.211 83.3815 131.082 83.7164C130.952 84.0518 130.808 84.4065 130.649 84.7804C130.616 84.8519 130.583 84.9259 130.55 85.0028C130.45 85.2336 130.333 85.5252 130.195 85.8769C130.074 86.163 129.967 86.4347 129.873 86.6932C129.863 86.7209 129.849 86.7539 129.832 86.7924C129.596 87.4356 129.412 88.035 129.279 88.5898C129.686 88.2436 130.116 87.8023 130.57 87.2667C131.023 86.7305 131.492 86.1522 131.976 85.5312C132.009 85.4982 132.062 85.4957 132.133 85.5228C132.205 85.5505 132.279 85.6028 132.355 85.6797C132.438 85.7621 132.496 85.8402 132.529 85.9147C132.562 85.9893 132.564 86.0428 132.537 86.0758C132.504 86.1366 132.465 86.1997 132.422 86.2652C132.224 86.573 131.986 86.9427 131.708 87.3743C131.43 87.8059 131.145 88.2388 130.85 88.6728C130.556 89.1074 130.287 89.4825 130.042 89.7981C129.798 90.1143 129.609 90.3133 129.477 90.3957C129.351 90.4726 129.236 90.5057 129.131 90.4949H129.123C128.952 90.4726 128.794 90.4233 128.648 90.3464C128.503 90.2694 128.364 90.1648 128.232 90.0332C127.962 89.7747 127.783 89.4807 127.695 89.1507C127.608 88.8207 127.608 88.4029 127.695 87.8973C127.893 86.9686 128.122 86.1792 128.379 85.5306C128.456 85.316 128.533 85.1098 128.61 84.912C128.654 84.8074 128.696 84.7034 128.734 84.5988C128.783 84.478 128.844 84.3349 128.916 84.1702C128.976 84.0272 129.04 83.8817 129.105 83.7332C129.297 83.2823 129.468 82.8675 129.616 82.4882C129.286 82.7191 128.951 83.0118 128.61 83.3665C128.269 83.7212 127.932 84.1101 127.596 84.5333C126.892 85.4404 126.336 86.2592 125.926 86.9908C125.517 87.7218 125.21 88.35 125.007 88.8748C124.804 89.3996 124.661 89.8054 124.578 90.0909C124.518 90.2941 124.468 90.4317 124.43 90.5033C124.391 90.5802 124.306 90.6049 124.174 90.5778C124.108 90.5941 124.021 90.5862 123.911 90.5532C123.746 90.4925 123.584 90.3993 123.424 90.273V90.2646C123.215 90.1053 123.038 89.9292 122.892 89.7368C122.747 89.5445 122.643 89.3383 122.583 89.1182C122.539 88.9313 122.524 88.7347 122.538 88.5285C122.552 88.3223 122.578 88.1119 122.616 87.8979C122.704 87.3755 122.927 86.6157 123.284 85.6178C123.641 84.6199 124.021 83.7103 124.422 82.8886C124.823 82.0668 125.175 81.4524 125.478 81.0455C125.555 80.9685 125.681 80.9631 125.857 81.0292L125.859 81.0286Z" fill="#ABA9A9"></path><path d="M135.532 85.5215C135.603 85.5492 135.68 85.6015 135.762 85.6784C135.839 85.7608 135.896 85.8389 135.931 85.9135C135.967 85.9874 135.971 86.0415 135.944 86.0746C135.862 86.2008 135.768 86.3469 135.664 86.5116C135.378 86.9625 135.048 87.4692 134.674 88.0331C134.3 88.5964 133.949 89.1037 133.619 89.5546C133.289 90.0054 133.044 90.2856 132.885 90.3956C132.758 90.4725 132.637 90.5056 132.522 90.4948C132.357 90.4725 132.201 90.4232 132.056 90.3463C131.91 90.2694 131.771 90.1648 131.639 90.0331C131.364 89.7746 131.183 89.4807 131.095 89.1506C131.007 88.8206 131.007 88.4028 131.095 87.8972C131.227 87.2101 131.455 86.4214 131.779 85.5305C132.12 84.6072 132.493 83.7319 132.897 82.9041C133.301 82.0769 133.657 81.4572 133.964 81.0448C134.036 80.9678 134.161 80.9624 134.339 81.0286C134.518 81.0947 134.709 81.2239 134.912 81.4163C135.11 81.6087 135.253 81.7986 135.341 81.985C135.429 82.1719 135.44 82.3096 135.374 82.3974C135.072 82.7989 134.724 83.4031 134.331 84.2116C133.938 85.0196 133.574 85.8798 133.238 86.7923C132.997 87.4356 132.807 88.0349 132.67 88.5898C133.082 88.2435 133.515 87.8023 133.968 87.2666C134.421 86.7304 134.893 86.1521 135.382 85.5311C135.41 85.4981 135.459 85.4957 135.53 85.5227L135.532 85.5215ZM137.04 76.5338C137.217 76.5999 137.406 76.7262 137.609 76.9131C137.807 77.1109 137.95 77.3033 138.038 77.4902C138.126 77.6772 138.137 77.8148 138.071 77.9026C137.796 78.2765 137.502 78.7081 137.188 79.1975L137.18 79.2059C136.878 79.7006 136.548 80.2615 136.19 80.8879C136.13 80.9871 136.013 81.0075 135.84 80.9498C135.667 80.8921 135.478 80.7701 135.275 80.5831C135.077 80.3961 134.929 80.208 134.829 80.018C134.73 79.8281 134.709 79.6814 134.763 79.5768C135.087 78.9889 135.42 78.425 135.761 77.8864L135.77 77.878C136.094 77.3616 136.394 76.9215 136.668 76.5584C136.74 76.4761 136.864 76.4677 137.039 76.5338H137.04Z" fill="#ABA9A9"></path><path d="M140.672 76.0725C140.851 76.144 141.042 76.2733 141.245 76.4602C141.437 76.658 141.575 76.8492 141.657 77.0331C141.74 77.2171 141.745 77.3535 141.674 77.4413C141.157 78.0514 140.539 78.9706 139.819 80.1993C139.098 81.4281 138.408 82.7428 137.749 84.1446L137.773 84.12C138.521 83.2405 139.311 82.5204 140.144 81.9595C140.977 81.3986 141.751 81.0662 142.465 80.9616C142.553 80.9562 142.669 81.0031 142.812 81.1016C142.955 81.2008 143.094 81.3271 143.228 81.481C143.363 81.6349 143.465 81.793 143.534 81.9553C143.602 82.1176 143.612 82.2589 143.562 82.3797C143.425 82.6598 143.269 82.9706 143.092 83.3115C142.916 83.6523 142.723 83.9932 142.511 84.334C142.299 84.6749 142.071 84.9856 141.827 85.2658C141.582 85.5459 141.325 85.7689 141.056 85.9337C140.88 86.0383 140.666 86.1194 140.412 86.1771C140.159 86.2348 139.905 86.2625 139.65 86.2595C139.394 86.2571 139.175 86.2168 138.994 86.1398C139.11 86.1891 139.206 86.2787 139.283 86.408C139.36 86.5372 139.427 86.6869 139.485 86.857C139.543 87.0277 139.596 87.2063 139.645 87.3932C139.7 87.5964 139.758 87.7852 139.819 87.9583C139.879 88.1314 139.952 88.2691 140.037 88.3707C140.122 88.4723 140.229 88.515 140.358 88.4987C140.488 88.4819 140.646 88.3833 140.833 88.2018C141.184 87.8555 141.552 87.4515 141.933 86.9899C142.315 86.5282 142.707 86.0419 143.109 85.5303C143.142 85.4972 143.192 85.4948 143.261 85.5219C143.33 85.5495 143.406 85.6018 143.488 85.6788C143.565 85.7611 143.62 85.8393 143.653 85.9138C143.686 85.9884 143.691 86.0419 143.669 86.0749C143.57 86.2234 143.455 86.3965 143.323 86.5943C143.037 87.0229 142.717 87.5014 142.363 88.0292C142.008 88.557 141.677 89.041 141.369 89.4804C141.072 89.9198 140.761 90.206 140.437 90.3382C140.113 90.4699 139.75 90.4152 139.348 90.1735C139.074 89.9974 138.859 89.7876 138.705 89.5429C138.551 89.2983 138.436 89.0374 138.359 88.7596C138.282 88.4819 138.216 88.203 138.161 87.9228C138.117 87.6698 138.065 87.4281 138.004 87.1973C137.944 86.9664 137.857 86.7572 137.745 86.5703C137.632 86.3833 137.48 86.2294 137.287 86.1086C136.935 86.6418 136.654 87.172 136.442 87.6998C136.23 88.2276 136.078 88.7885 135.984 89.3818C135.973 89.4479 135.975 89.5099 135.989 89.5676C136.002 89.6253 136.026 89.6872 136.059 89.7533C136.081 89.8134 136.108 89.888 136.141 89.9757C136.18 90.0858 136.202 90.1904 136.207 90.2889C136.213 90.3881 136.195 90.4645 136.154 90.5198C136.112 90.5745 136.043 90.5859 135.944 90.5528C135.73 90.4705 135.515 90.3328 135.3 90.1405C135.108 89.9812 134.947 89.808 134.818 89.6211C134.688 89.4341 134.596 89.2333 134.542 89.0193C134.498 88.8432 134.476 88.6592 134.476 88.4669C134.476 88.2745 134.492 88.0767 134.525 87.8729C134.624 87.2081 134.843 86.4164 135.184 85.4984C135.613 84.3659 136.137 83.1744 136.755 81.924C137.374 80.6736 138 79.5218 138.635 78.4692C139.27 77.4166 139.821 76.6183 140.288 76.0737C140.365 76.0021 140.493 76.0021 140.672 76.0737L140.672 76.0725ZM138.293 84.7879C138.31 84.8263 138.354 84.8456 138.425 84.8456C138.48 84.851 138.563 84.851 138.673 84.8456C138.783 84.8402 138.907 84.8221 139.044 84.7921C139.181 84.762 139.316 84.7055 139.448 84.6232C139.822 84.4031 140.143 84.1092 140.412 83.7407C140.682 83.3728 140.943 82.9436 141.196 82.4542C140.701 82.7019 140.216 82.9983 139.74 83.3445C139.265 83.6908 138.796 84.1278 138.334 84.6556C138.29 84.7049 138.277 84.7494 138.293 84.7879H138.293Z" fill="#ABA9A9"></path></svg>